<?xml version="1.0" encoding="UTF-8" standalone="no"?>
<!-- Created with Inkscape (http://www.inkscape.org/) -->

<svg
   xmlns:dc="http://purl.org/dc/elements/1.1/"
   xmlns:cc="http://creativecommons.org/ns#"
   xmlns:rdf="http://www.w3.org/1999/02/22-rdf-syntax-ns#"
   xmlns:svg="http://www.w3.org/2000/svg"
   xmlns="http://www.w3.org/2000/svg"
   xmlns:sodipodi="http://sodipodi.sourceforge.net/DTD/sodipodi-0.dtd"
   xmlns:inkscape="http://www.inkscape.org/namespaces/inkscape"
   width="1366"
   height="728"
   viewBox="0 0 361.42085 192.61666"
   version="1.1"
   id="svg6982"
   inkscape:version="0.92.4 (5da689c313, 2019-01-14)"
   sodipodi:docname="eagle.svg">
  <defs
     id="defs6976">
    <clipPath
       clipPathUnits="userSpaceOnUse"
       id="clipPath3023">
      <rect
         style="opacity:1;fill:url(#linearGradient3027);fill-opacity:1;stroke:none;stroke-width:126.84598541;stroke-linejoin:round;stroke-miterlimit:3.5;stroke-dasharray:none;stroke-opacity:1;paint-order:markers fill stroke"
         id="rect3025"
         width="361.42084"
         height="192.61667"
         x="3.5527137e-15"
         y="104.38336"
         ry="0.31500012" />
    </clipPath>
    <clipPath
       clipPathUnits="userSpaceOnUse"
       id="clipPath2993">
      <rect
         style="opacity:1;fill:url(#linearGradient2997);fill-opacity:1;stroke:none;stroke-width:126.84598541;stroke-linejoin:round;stroke-miterlimit:3.5;stroke-dasharray:none;stroke-opacity:1;paint-order:markers fill stroke"
         id="rect2995"
         width="361.42084"
         height="192.61667"
         x="3.5527137e-15"
         y="104.38336"
         ry="0.31500012" />
    </clipPath>
    <clipPath
       clipPathUnits="userSpaceOnUse"
       id="clipPath6945">
      <rect
         ry="0.31500012"
         y="104.38336"
         x="3.5527137e-15"
         height="192.61667"
         width="361.42084"
         id="rect6947"
         style="display:inline;opacity:1;fill:url(#linearGradient6949);fill-opacity:1;stroke:none;stroke-width:126.84598541;stroke-linejoin:round;stroke-miterlimit:3.5;stroke-dasharray:none;stroke-opacity:1;paint-order:markers fill stroke"
         clip-path="url(#clipPath3017)"
         transform="translate(0,-104.38336)" />
    </clipPath>
    <clipPath
       clipPathUnits="userSpaceOnUse"
       id="clipPath3023-3">
      <rect
         style="opacity:1;fill:url(#linearGradient3027);fill-opacity:1;stroke:none;stroke-width:126.84598541;stroke-linejoin:round;stroke-miterlimit:3.5;stroke-dasharray:none;stroke-opacity:1;paint-order:markers fill stroke"
         id="rect3025-1"
         width="361.42084"
         height="192.61667"
         x="3.5527137e-15"
         y="104.38336"
         ry="0.31500012" />
    </clipPath>
    <clipPath
       clipPathUnits="userSpaceOnUse"
       id="clipPath2993-3">
      <rect
         style="opacity:1;fill:url(#linearGradient2997);fill-opacity:1;stroke:none;stroke-width:126.84598541;stroke-linejoin:round;stroke-miterlimit:3.5;stroke-dasharray:none;stroke-opacity:1;paint-order:markers fill stroke"
         id="rect2995-5"
         width="361.42084"
         height="192.61667"
         x="3.5527137e-15"
         y="104.38336"
         ry="0.31500012" />
    </clipPath>
    <clipPath
       clipPathUnits="userSpaceOnUse"
       id="clipPath6945-9">
      <rect
         ry="0.31500012"
         y="104.38336"
         x="3.5527137e-15"
         height="192.61667"
         width="361.42084"
         id="rect6947-6"
         style="display:inline;opacity:1;fill:url(#linearGradient6949);fill-opacity:1;stroke:none;stroke-width:126.84598541;stroke-linejoin:round;stroke-miterlimit:3.5;stroke-dasharray:none;stroke-opacity:1;paint-order:markers fill stroke"
         clip-path="url(#clipPath3017)"
         transform="translate(0,-104.38336)" />
    </clipPath>
    <clipPath
       clipPathUnits="userSpaceOnUse"
       id="clipPath6939">
      <rect
         ry="0.31500012"
         y="104.38336"
         x="3.5527137e-15"
         height="192.61667"
         width="361.42084"
         id="rect6941"
         style="display:inline;opacity:1;fill:url(#linearGradient6943);fill-opacity:1;stroke:none;stroke-width:126.84598541;stroke-linejoin:round;stroke-miterlimit:3.5;stroke-dasharray:none;stroke-opacity:1;paint-order:markers fill stroke"
         clip-path="url(#clipPath3017)"
         transform="translate(0,-104.38336)" />
    </clipPath>
    <clipPath
       clipPathUnits="userSpaceOnUse"
       id="clipPath3005">
      <rect
         style="opacity:1;fill:url(#linearGradient3009);fill-opacity:1;stroke:none;stroke-width:126.84598541;stroke-linejoin:round;stroke-miterlimit:3.5;stroke-dasharray:none;stroke-opacity:1;paint-order:markers fill stroke"
         id="rect3007"
         width="361.42084"
         height="192.61667"
         x="-7.5595241"
         y="-1.5119082"
         ry="0.31500012" />
    </clipPath>
  </defs>
  <sodipodi:namedview
     id="base"
     pagecolor="#ffffff"
     bordercolor="#666666"
     borderopacity="1.0"
     inkscape:pageopacity="0.0"
     inkscape:pageshadow="2"
     inkscape:zoom="0.49497474"
     inkscape:cx="819.29306"
     inkscape:cy="338.91369"
     inkscape:document-units="px"
     inkscape:current-layer="layer1"
     showgrid="false"
     inkscape:window-width="1366"
     inkscape:window-height="705"
     inkscape:window-x="-8"
     inkscape:window-y="-8"
     inkscape:window-maximized="1"
     units="px" />
  <metadata
     id="metadata6979">
    <rdf:RDF>
      <cc:Work
         rdf:about="">
        <dc:format>image/svg+xml</dc:format>
        <dc:type
           rdf:resource="http://purl.org/dc/dcmitype/StillImage" />
        <dc:title></dc:title>
      </cc:Work>
    </rdf:RDF>
  </metadata>
  <g
     inkscape:label="Layer 1"
     inkscape:groupmode="layer"
     id="layer1"
     transform="translate(0,-104.38337)">
    <path
       id="path3049"
       d="m 342.80929,129.57796 h 0.0212 c 0.01,0.0136 0.0185,0.0291 0.0314,0.0404 0.16241,0.0113 0.34777,-0.0136 0.48906,0.0842 0.0966,0.14768 0.16857,0.31073 0.27381,0.45295 0.0538,-0.007 0.078,0.0323 0.0945,0.0747 0.19492,0.0513 0.45339,-0.002 0.59245,0.17523 0.0324,0.0348 0.031,0.096 0.0797,0.11472 0.21633,0.0574 0.44337,0.0833 0.65331,0.16395 0.10747,0.0158 -0.002,-0.10953 -0.005,-0.14363 0.18151,-0.002 0.35177,0.0723 0.52358,0.12375 0.12666,0.056 0.28667,0.1233 0.33228,0.2614 0.20547,0.0158 0.39283,0.11133 0.58127,0.18879 0.11495,0.081 0.22126,0.175 0.34954,0.23581 -0.0569,0.0621 0.0487,0.0761 0.0436,0.14227 0.0569,0.12239 -0.19483,0.0472 -0.1694,0.14045 0.2077,-0.0113 0.39661,0.0903 0.57365,0.18676 0.10532,0.10229 0.2869,0.14586 0.32704,0.30324 0.0544,0.0287 0.0529,0.10004 0.11695,0.11517 -0.0199,0.0519 -0.21403,0.053 -0.10107,0.10545 -0.0398,0.0741 -0.0973,0.13775 -0.15286,0.20053 -0.0226,0.0804 0.10862,0.0515 0.15624,0.0847 0.36387,0.066 0.70609,0.22424 1.01356,0.42666 0.0522,0.0271 -0.0102,0.10884 0.0499,0.12059 0.30825,0.11019 0.60917,0.25185 0.88598,0.42364 0.10139,0.0386 0.20448,0.0752 0.29553,0.13572 0.29068,0.10997 0.57712,0.23089 0.86757,0.34161 0.22958,0.11066 0.45377,0.23883 0.66102,0.38613 0.0301,0.0348 0.0493,0.0786 0.0855,0.10748 0.057,0.0316 0.0154,0.11495 0.0593,0.15672 0.12173,0.11223 0.22958,0.23799 0.3436,0.35717 0.0478,0.10478 0.16873,0.1294 0.25347,0.19353 0.16256,0.0969 0.25809,0.26648 0.38289,0.40331 0.0917,0.11132 0.198,0.21226 0.26811,0.33998 0.12634,0.0684 0.24191,0.15536 0.34592,0.25525 0.12557,0.0989 0.25346,0.20142 0.31201,0.35801 0.0431,0.12577 0.18876,0.18065 0.22881,0.30932 0.0647,0.0815 0.27119,0.0226 0.23113,0.17093 0.0601,0.13233 0.24499,0.15424 0.27658,0.30115 0.0108,0.077 0.037,0.18495 0.11864,0.20888 0.55932,0.024 1.1148,0.10862 1.67489,0.12397 0.51232,0.0136 1.02465,-0.0262 1.53621,-0.007 0.22572,-0.0293 0.44992,0.0501 0.67334,0.0226 0.11094,0.0594 0.18259,0.16959 0.29738,0.22108 0.094,0.0393 -0.10092,0.14249 0.008,0.18494 0.0324,0.0831 0.11171,0.14091 0.12944,0.22726 -0.0601,0.11472 -0.21263,0.20729 -0.34361,0.14859 -0.0685,-0.0181 -0.047,0.0747 -0.01,0.0948 0.0917,0.0763 0.21263,0.10704 0.30971,0.17568 0.12788,0.0555 0.29045,0.0994 0.33976,0.24652 0.0154,0.0716 0.0555,0.14475 0.0331,0.2195 0.11401,0.10861 0.29045,0.22581 0.27812,0.40832 -0.0201,0.1102 -0.15794,0.1172 -0.24731,0.11336 0.0932,0.22424 0.37134,0.2997 0.54777,0.44991 0.11865,0.0416 0.28274,0.0203 0.36055,0.13956 0.0247,0.0393 0.10862,0.0113 0.0778,0.0831 0.11711,0.0763 0.18183,0.22334 0.26118,0.34131 0.0832,0.084 0.1171,0.20797 0.077,0.31973 0.0462,0.0856 0.15563,0.0894 0.23651,0.12104 0.0516,0.12171 0.14638,0.25269 0.27273,0.28044 -0.067,0.0777 0.0608,0.0738 0.0593,0.1409 -0.037,0.0454 0.0154,0.091 0.0539,0.11021 0.0262,0.0408 0.0354,0.0933 0.0616,0.13548 v 0.0226 c -0.0455,-0.0269 -0.0362,0.0624 0,0.0562 v 0.007 c -0.0277,0.14475 -0.19876,0.14475 -0.32203,0.12645 0.006,0.25579 0.35516,0.3937 0.27889,0.66411 -0.10941,0.0763 -0.23575,0 -0.33513,-0.0555 -0.84052,-0.53853 -1.74499,-0.96997 -2.65717,-1.37212 -0.36672,-0.17095 -0.73497,-0.33821 -1.10786,-0.4946 -0.0955,-0.053 -0.20955,-0.0158 -0.30816,-0.0624 -0.0948,-0.0424 -0.198,-0.0571 -0.29969,-0.0732 0.0224,0.10477 0.12867,0.1872 0.10861,0.30816 0.0447,0.0332 0.0709,0.0809 0.0963,0.12939 0.10862,0.0517 0.13098,0.18811 0.21726,0.26195 0.14714,0.0555 0.27966,0.15784 0.33667,0.30817 -0.005,0.0323 -0.0732,0.0203 -0.0593,0.067 0.0393,0.0933 0.10632,0.17636 0.12867,0.27657 -0.0285,0.0624 -0.11864,0.0508 -0.1741,0.0454 6.6e-4,0.0808 0.0994,0.12239 0.0956,0.2064 0.0217,0.0501 -0.0416,0.0616 -0.074,0.0648 -0.0894,-0.077 -0.22728,-0.0678 -0.3413,-0.0894 -0.0192,0.0962 0.21879,0.0348 0.16641,0.14475 0.0778,0.03 0.18182,0.005 0.2396,0.0754 0.1795,0.19805 0.37904,0.37903 0.56625,0.5678 -0.0331,0.10026 0.0986,0.0709 0.14637,0.12103 0.0686,0.0732 0.0986,0.18178 0.1903,0.23266 0.0431,0.0239 0.0763,0.061 0.0786,0.11245 0.084,0.0562 0.12174,0.1565 0.20956,0.21024 0.006,0.0955 0.12711,0.1041 0.1302,0.19172 0.0801,0.0732 0.10171,0.18337 0.15871,0.27195 -0.0686,-0.0113 -0.12172,-0.0777 -0.19414,-0.0678 -0.0163,0.0386 0.0115,0.0661 0.0401,0.0847 0.10478,0.1425 0.24807,0.26196 0.33128,0.42219 0.20186,0.17253 0.32743,0.42372 0.39445,0.6741 -0.10401,0.005 -0.17796,-0.0955 -0.27195,-0.10252 -0.002,0.1233 0.16793,0.1565 0.1795,0.28121 0.0963,0.0901 0.1849,0.19262 0.24422,0.31125 0.20416,0.23575 0.4245,0.46224 0.5886,0.72958 0.0593,0.0987 0.0115,0.21791 0.0439,0.32204 h -0.007 c -0.0378,-0.0203 -0.10785,-0.0872 -0.13558,-0.0246 -0.0393,-0.10952 -0.14484,-0.16869 -0.21419,-0.25732 -0.10785,6.6e-4 -0.11941,-0.12781 -0.17103,-0.19646 -0.0108,-0.0293 -0.0547,-0.009 -0.0501,0.0203 -0.62172,-0.76655 -1.32049,-1.46842 -2.0131,-2.1718 -0.0277,-0.0255 -0.0632,-0.002 -0.0439,0.0354 0.24269,0.35362 0.57011,0.64024 0.83591,0.9769 0.17487,0.24962 0.39676,0.46534 0.56317,0.72033 -0.0447,0.0818 0.12327,0.12013 0.057,0.20029 -0.0786,-0.009 -0.22882,-0.20413 -0.25578,-0.0624 -0.13791,-0.10161 -0.27966,-0.21655 -0.45455,-0.22581 -0.0901,-0.0362 -0.16873,-0.0948 -0.25038,-0.14566 -0.074,-0.0517 -0.10862,-0.14564 -0.18876,-0.18878 -0.11634,-0.07 -0.16796,-0.20955 -0.2866,-0.27503 -0.16024,-0.20956 -0.35747,-0.38906 -0.54006,-0.57859 -0.0717,-0.0226 -0.11788,-0.0824 -0.16256,-0.13707 -0.3074,-0.20031 -0.63251,-0.36903 -0.92373,-0.58629 -0.20186,-0.12872 -0.38598,-0.28583 -0.58629,-0.41525 -0.69645,-0.29354 -1.39368,-0.65256 -1.90061,-1.22729 -0.19337,-0.18946 -0.32512,-0.43221 -0.52312,-0.61711 -0.17643,-0.19804 -0.32742,-0.41986 -0.44221,-0.6587 -0.0593,-0.0962 -0.12404,-0.18946 -0.2242,-0.24652 -0.29737,-0.25965 -0.59167,-0.53083 -0.81894,-0.85516 -0.19646,-0.0424 -0.40293,0 -0.59631,-0.0639 -0.4473,-0.0693 -0.89091,-0.17885 -1.31394,-0.34284 -0.31048,-0.10026 -0.61503,-0.23575 -0.94215,-0.26888 -0.18582,-0.0824 -0.3899,-0.0901 -0.58597,-0.13029 -0.31056,-0.005 -0.63644,-0.0754 -0.93352,0.0508 -0.18474,-0.0113 -0.24869,0.19963 -0.40839,0.25195 -0.0575,-0.0585 0.026,-0.10546 0.0212,-0.16642 -0.0395,-0.0158 -0.0761,0.0856 -0.0978,0.0339 0.006,-0.0555 0.0588,-0.0933 0.0756,-0.14565 -0.0515,-0.0278 -0.0742,0.0393 -0.10379,0.0686 -0.0641,0.0687 0.01,0.14859 0.0355,0.21792 -0.19298,-0.1032 -0.27774,-0.3567 -0.18528,-0.5547 0.0531,-0.0978 0.0926,-0.20188 0.1527,-0.29584 0.084,-0.56858 0.53551,-1.02853 1.05731,-1.23729 0.33329,-0.07 0.63976,-0.22378 0.94531,-0.36557 0.0192,-0.0696 0.0194,-0.14633 -0.0172,-0.21001 -0.0384,-0.17682 -0.0967,-0.35118 -0.19685,-0.50308 -0.099,-0.3588 -0.3698,-0.62991 -0.58282,-0.91934 -0.33035,-0.40918 -0.69352,-0.79893 -1.08605,-1.14784 -0.33829,-0.31156 -0.78297,-0.50109 -1.06502,-0.87682 -0.18321,-0.10659 -0.35355,-0.24505 -0.50809,-0.3929 -0.23383,-0.18969 -0.43375,-0.41781 -0.61194,-0.65963 -0.0349,-0.0903 -0.10817,-0.17184 -0.20988,-0.18065 -0.12088,-0.0705 -0.22588,-0.16011 -0.34537,-0.23438 -0.091,-0.0919 -0.16934,-0.21452 -0.28105,-0.27364 -0.45563,-0.42898 -0.76079,-1.04322 -0.82558,-1.67535 v -0.0298 c 0.18027,-0.0226 0.29931,0.17501 0.44361,0.22491 -0.0256,-0.15694 -0.1014,-0.30986 -0.10948,-0.47064 0.0433,-0.0237 0.0243,-0.0761 0.009,-0.11269 z"
       inkscape:connector-curvature="0"
       style="stroke-width:0.00770416" />
    <rect
       style="opacity:0.98999999;fill:none;fill-opacity:1;fill-rule:nonzero;stroke:none;stroke-width:100;stroke-linejoin:round;stroke-miterlimit:3.5;stroke-dasharray:none;stroke-opacity:1;paint-order:markers fill stroke"
       id="rect10162"
       width="361.42084"
       height="192.61667"
       x="0"
       y="104.38337" />
  </g>
</svg>
