<?xml version="1.0" encoding="UTF-8" standalone="no"?>
<!-- Created with Inkscape (http://www.inkscape.org/) -->

<svg
   xmlns:dc="http://purl.org/dc/elements/1.1/"
   xmlns:cc="http://creativecommons.org/ns#"
   xmlns:rdf="http://www.w3.org/1999/02/22-rdf-syntax-ns#"
   xmlns:svg="http://www.w3.org/2000/svg"
   xmlns="http://www.w3.org/2000/svg"
   xmlns:sodipodi="http://sodipodi.sourceforge.net/DTD/sodipodi-0.dtd"
   xmlns:inkscape="http://www.inkscape.org/namespaces/inkscape"
   width="1366"
   height="728"
   viewBox="0 0 361.42085 192.61666"
   version="1.1"
   id="svg6982"
   inkscape:version="0.92.4 (5da689c313, 2019-01-14)"
   sodipodi:docname="middle_back.svg">
  <defs
     id="defs6976">
    <clipPath
       clipPathUnits="userSpaceOnUse"
       id="clipPath3023">
      <rect
         style="opacity:1;fill:url(#linearGradient3027);fill-opacity:1;stroke:none;stroke-width:126.84598541;stroke-linejoin:round;stroke-miterlimit:3.5;stroke-dasharray:none;stroke-opacity:1;paint-order:markers fill stroke"
         id="rect3025"
         width="361.42084"
         height="192.61667"
         x="3.5527137e-15"
         y="104.38336"
         ry="0.31500012" />
    </clipPath>
    <clipPath
       clipPathUnits="userSpaceOnUse"
       id="clipPath2993">
      <rect
         style="opacity:1;fill:url(#linearGradient2997);fill-opacity:1;stroke:none;stroke-width:126.84598541;stroke-linejoin:round;stroke-miterlimit:3.5;stroke-dasharray:none;stroke-opacity:1;paint-order:markers fill stroke"
         id="rect2995"
         width="361.42084"
         height="192.61667"
         x="3.5527137e-15"
         y="104.38336"
         ry="0.31500012" />
    </clipPath>
    <clipPath
       clipPathUnits="userSpaceOnUse"
       id="clipPath6945">
      <rect
         ry="0.31500012"
         y="104.38336"
         x="3.5527137e-15"
         height="192.61667"
         width="361.42084"
         id="rect6947"
         style="display:inline;opacity:1;fill:url(#linearGradient6949);fill-opacity:1;stroke:none;stroke-width:126.84598541;stroke-linejoin:round;stroke-miterlimit:3.5;stroke-dasharray:none;stroke-opacity:1;paint-order:markers fill stroke"
         clip-path="url(#clipPath3017)"
         transform="translate(0,-104.38336)" />
    </clipPath>
    <clipPath
       clipPathUnits="userSpaceOnUse"
       id="clipPath3023-3">
      <rect
         style="opacity:1;fill:url(#linearGradient3027);fill-opacity:1;stroke:none;stroke-width:126.84598541;stroke-linejoin:round;stroke-miterlimit:3.5;stroke-dasharray:none;stroke-opacity:1;paint-order:markers fill stroke"
         id="rect3025-1"
         width="361.42084"
         height="192.61667"
         x="3.5527137e-15"
         y="104.38336"
         ry="0.31500012" />
    </clipPath>
    <clipPath
       clipPathUnits="userSpaceOnUse"
       id="clipPath2993-3">
      <rect
         style="opacity:1;fill:url(#linearGradient2997);fill-opacity:1;stroke:none;stroke-width:126.84598541;stroke-linejoin:round;stroke-miterlimit:3.5;stroke-dasharray:none;stroke-opacity:1;paint-order:markers fill stroke"
         id="rect2995-5"
         width="361.42084"
         height="192.61667"
         x="3.5527137e-15"
         y="104.38336"
         ry="0.31500012" />
    </clipPath>
    <clipPath
       clipPathUnits="userSpaceOnUse"
       id="clipPath6945-9">
      <rect
         ry="0.31500012"
         y="104.38336"
         x="3.5527137e-15"
         height="192.61667"
         width="361.42084"
         id="rect6947-6"
         style="display:inline;opacity:1;fill:url(#linearGradient6949);fill-opacity:1;stroke:none;stroke-width:126.84598541;stroke-linejoin:round;stroke-miterlimit:3.5;stroke-dasharray:none;stroke-opacity:1;paint-order:markers fill stroke"
         clip-path="url(#clipPath3017)"
         transform="translate(0,-104.38336)" />
    </clipPath>
    <clipPath
       clipPathUnits="userSpaceOnUse"
       id="clipPath6945-2">
      <rect
         ry="0.31500012"
         y="104.38336"
         x="3.5527137e-15"
         height="192.61667"
         width="361.42084"
         id="rect6947-9"
         style="display:inline;opacity:1;fill:url(#linearGradient6949);fill-opacity:1;stroke:none;stroke-width:126.84598541;stroke-linejoin:round;stroke-miterlimit:3.5;stroke-dasharray:none;stroke-opacity:1;paint-order:markers fill stroke"
         clip-path="url(#clipPath3017)"
         transform="translate(0,-104.38336)" />
    </clipPath>
  </defs>
  <sodipodi:namedview
     id="base"
     pagecolor="#ffffff"
     bordercolor="#666666"
     borderopacity="1.0"
     inkscape:pageopacity="0.0"
     inkscape:pageshadow="2"
     inkscape:zoom="0.73626374"
     inkscape:cx="683"
     inkscape:cy="364"
     inkscape:document-units="px"
     inkscape:current-layer="layer1"
     showgrid="false"
     inkscape:window-width="1366"
     inkscape:window-height="705"
     inkscape:window-x="-8"
     inkscape:window-y="-8"
     inkscape:window-maximized="1"
     units="px" />
  <metadata
     id="metadata6979">
    <rdf:RDF>
      <cc:Work
         rdf:about="">
        <dc:format>image/svg+xml</dc:format>
        <dc:type
           rdf:resource="http://purl.org/dc/dcmitype/StillImage" />
        <dc:title></dc:title>
      </cc:Work>
    </rdf:RDF>
  </metadata>
  <g
     inkscape:label="Layer 1"
     inkscape:groupmode="layer"
     id="layer1"
     transform="translate(0,-104.38337)">
    <path
       style="display:inline;opacity:0.628;fill:#061b46;fill-opacity:0.43529412;stroke:none;stroke-width:0.26458332px;stroke-linecap:butt;stroke-linejoin:miter;stroke-opacity:1"
       d="m -8.315476,124.02553 c 0,0 4.157738,-1.67083 4.157738,-1.67083 0,0 4.157738,-0.0997 4.157738,-0.0997 0,0 4.157738,-4.41939 4.157738,-4.41939 0,0 4.157738,1.64946 4.157738,1.64946 0,0 3.779762,0.69584 3.779762,0.69584 0,0 3.779762,4.17051 3.779762,4.17051 0,0 3.779762,-2.2367 3.779762,-2.2367 0,0 3.779762,0.41413 3.779762,0.41413 0,0 5.669643,5.74163 5.669643,5.74163 0,0 5.669642,1.27998 5.669642,1.27998 0,0 5.669643,3.97838 5.669643,3.97838 0,0 5.669642,2.35689 5.669642,2.35689 0,0 3.401786,1.83139 3.401786,1.83139 0,0 3.401786,4.94064 3.401786,4.94064 0,0 3.401786,-1.85191 3.401786,-1.85191 0,0 3.401786,1.91451 3.401786,1.91451 0,0 6.047619,-1.82333 6.047619,-1.82333 0,0 6.047619,4.09148 6.047619,4.09148 0,0 6.047619,0.95756 6.047619,0.95756 0,0 6.047619,1.13806 6.047619,1.13806 0,0 4.157739,-3.34538 4.157739,-3.34538 0,0 4.157739,4.67057 4.157739,4.67057 0,0 4.157739,-4.31009 4.157739,-4.31009 0,0 4.157739,3.1893 4.157739,3.1893 0,0 7.37053,-4.23024 7.37053,-4.23024 0,0 7.37054,3.00051 7.37054,3.00051 0,0 7.37054,-4.51455 7.37054,-4.51455 0,0 7.37053,-1.86253 7.37053,-1.86253 0,0 2.45685,2.83773 2.45685,2.83773 0,0 2.45684,0.21082 2.45684,0.21082 0,0 2.45684,-3.34938 2.45684,-3.34938 0,0 2.45685,0.38144 2.45685,0.38144 0,0 5.29167,-1.61917 5.29167,-1.61917 0,0 5.29166,1.20711 5.29166,1.20711 0,0 5.29167,0.27736 5.29167,0.27736 0,0 5.29167,-5.26408 5.29167,-5.26408 0,0 5.66964,4.72136 5.66964,4.72136 0,0 5.66965,2.85837 5.66965,2.85837 0,0 5.66964,0.0274 5.66964,0.0274 0,0 5.66964,-1.72124 5.66964,-1.72124 0,0 3.40178,2.35224 3.40178,2.35224 0,0 3.40179,0.41715 3.40179,0.41715 0,0 3.40179,2.67164 3.40179,2.67164 0,0 3.40178,0.64451 3.40178,0.64451 0,0 5.29167,3.7273 5.29167,3.7273 0,0 5.29166,1.08235 5.29166,1.08235 0,0 5.29167,-0.35556 5.29167,-0.35556 0,0 5.29167,-4.2343 5.29167,-4.2343 0,0 6.99256,0.206 6.99256,0.206 0,0 6.99255,-4.53892 6.99255,-4.53892 0,0 6.99256,-2.27023 6.99256,-2.27023 0,0 6.99256,-1.74055 6.99256,-1.74055 0,0 3.59078,-1.54946 3.59078,-1.54946 0,0 3.59077,0.31516 3.59077,0.31516 0,0 3.59078,4.7706 3.59078,4.7706 0,0 3.59077,-0.82964 3.59077,-0.82964 0,0 3.96875,-1.90449 3.96875,-1.90449 0,0 3.96875,-0.42905 3.96875,-0.42905 0,0 3.96875,2.11217 3.96875,2.11217 0,0 3.96875,-0.73398 3.96875,-0.73398 0,0 8.88244,4.26714 8.88244,4.26714 0,0 8.88244,2.99822 8.88244,2.99822 0,0 8.88244,-2.33849 8.88244,-2.33849 0,0 8.88244,2.55106 8.88244,2.55106 0,0 7.9375,-0.0947 7.9375,-0.0947 0,0 7.9375,-1.74956 7.9375,-1.74956 0,0 7.9375,2.12787 7.9375,2.12787 0,0 7.9375,-1.27608 7.9375,-1.27608 0,0 6.99256,-3.2365 6.99256,-3.2365 0,0 6.99256,0.66358 6.99256,0.66358 0,0 6.99256,-1.4731 6.99256,-1.4731 0,0 6.99256,1.18845 6.99256,1.18845 0,0 3.77976,80.31088 3.77976,80.31088 0,0 -378.7321394,-10.68533 -378.7321394,-10.68533 0,0 -5.2916666,-92.35912 -5.2916666,-92.35912"
       id="path3124-0"
       inkscape:connector-curvature="0"
       sodipodi:nodetypes="cccccccccccccccccccccccccccccccccccccccccccccccccccccccccccccccccccccccccccc"
       clip-path="url(#clipPath6945-2)"
       transform="matrix(0.99999999,0,0,1.7485293,0,-39.795854)" />
  </g>
</svg>
